Coordinates
version=1
nRows=13
nColumns=34
inDegrees=yes

Units are S.I. units (second, meters, Newtons, ...)
If the header above contains a line with 'inDegrees', this indicates whether rotational values are in degrees (yes) or radians (no).

endheader
time	pelvis_tilt	pelvis_list	pelvis_rotation	pelvis_tx	pelvis_ty	pelvis_tz	hip_flexion_l	hip_adduction_l	hip_rotation_l	hip_flexion_r	hip_adduction_r	hip_rotation_r	knee_angle_l_beta	knee_angle_r_beta	knee_angle_l	knee_angle_r	ankle_angle_l	ankle_angle_r	subtalar_angle_l	subtalar_angle_r	mtp_angle_l	mtp_angle_r	lumbar_ext	lumbar_bend	lumbar_rota	shoulder_flexion_r	shoulder_adduction_r	shoulder_rotation_r	elbow_flexion_r	shoulder_flexion_l	shoulder_adduction_l	shoulder_rotation_l	elbow_flexion_l
      0.17000000	     23.94098480	      7.39709243	     -7.58071775	     -0.90365151	      0.96389924	      0.26774167	    -17.37244112	     13.49511406	      9.11675434	    -29.68512081	    -10.84026724	     -8.96506932	     -0.10164075	      0.83383624	      5.82358618	    -47.77529722	    -14.17945370	    -13.36306357	    -11.57310118	     22.70154767	    -18.45053292	      5.50378403	    -38.25920019	    -12.45734645	     -3.47176592	      2.07099080	      5.85770799	    -37.92069225	     54.48312320	    -13.23801515	      4.24445972	    -46.90974475	     36.79154369
      0.18000000	     23.62084740	      8.00315828	     -8.04408779	     -0.89159839	      0.96440123	      0.26817564	    -17.84616990	     14.17889873	      9.70551348	    -27.26100218	    -11.91790358	     -8.10181464	     -0.10677509	      0.89553408	      6.11776224	    -51.31032312	    -13.79195312	    -14.45386250	    -11.99308941	     21.68182707	    -18.70921382	      3.28914476	    -37.87619319	    -13.20650481	     -3.78068797	      2.05283541	      5.77293143	    -37.55253709	     53.83597073	    -12.69633440	      3.91861393	    -46.24170668	     36.96398101
      0.19000000	     23.42199685	      8.39336411	     -8.52033615	     -0.87981766	      0.96508513	      0.26866710	    -18.50522726	     14.67327329	      9.97098517	    -24.95773578	    -12.72599852	     -7.08427868	     -0.11346005	      0.95032370	      6.50078174	    -54.44953702	    -13.30856811	    -15.34774473	    -12.10146282	     20.55642478	    -18.68991874	      2.76406862	    -37.64944082	    -13.77568242	     -4.05678910	      2.11480755	      5.64345966	    -37.00366944	     53.12668327	    -12.17912707	      3.64236340	    -45.55988653	     37.36033732
      0.20000000	     22.93837478	      8.62768610	     -9.01084970	     -0.86858274	      0.96544755	      0.26916493	    -18.80595858	     15.00188727	     10.14856521	    -22.20134749	    -13.23508670	     -5.77424002	     -0.11917502	      1.00605541	      6.82822573	    -57.64272917	    -12.66904905	    -14.61751457	    -12.22732431	     19.64574763	    -19.03778389	     -1.28834452	    -37.14496950	    -14.16664308	     -3.92089545	      2.13108152	      5.49019942	    -36.73745153	     52.45953246	    -11.36888927	      3.29063040	    -44.70223560	     37.37445874
      0.21000000	     22.78342785	      8.54335556	     -9.45411962	     -0.85751775	      0.96628155	      0.26970239	    -19.57612601	     15.04660091	     10.15363516	    -19.94847641	    -13.32309502	     -4.45413504	     -0.12773309	      1.04967641	      7.31856710	    -60.14202809	    -12.10092947	    -14.10160576	    -12.33815771	     18.45076699	    -19.02310057	     -1.48656211	    -37.02337332	    -14.27145546	     -3.94183320	      2.28935125	      5.28766107	    -36.10818025	     51.68230134	    -10.71394671	      3.06296975	    -43.97767060	     37.86233447
      0.22000000	     22.27457979	      8.42784412	    -10.00670244	     -0.84707310	      0.96672164	      0.27021806	    -19.78747594	     15.10775957	      9.78160179	    -17.13996847	    -13.27608601	     -2.89021890	     -0.13193771	      1.09207462	      7.55947402	    -62.57126639	    -11.57662639	    -12.97266950	    -12.34781968	     17.30535459	    -19.05407784	     -2.49537654	    -36.54577231	    -14.35806701	     -3.56861038	      2.43682333	      5.01688686	    -35.58055923	     50.80480745	     -9.76451813	      2.80730997	    -43.24604996	     37.99712606
      0.23000000	     21.80973070	      8.13480654	    -10.51434001	     -0.83677852	      0.96722423	      0.27074396	    -20.08313721	     15.00356417	      9.28748133	    -14.47096192	    -12.91466264	     -1.35567431	     -0.13680184	      1.12775948	      7.83816778	    -64.61585835	    -10.93526737	    -11.27259136	    -12.28713106	     16.26179604	    -19.04314270	     -3.96230025	    -36.14768965	    -14.24929003	     -3.07437464	      2.53972848	      4.75423040	    -35.15330274	     50.06389998	     -8.77867894	      2.55971574	    -42.32866546	     38.23717865
      0.24000000	     21.38219703	      7.70217664	    -10.90276626	     -0.82667286	      0.96784241	      0.27119714	    -20.41180739	     14.73881689	      8.74942814	    -11.97203363	    -12.24887384	      0.04534648	     -0.14050692	      1.15768306	      8.05045367	    -66.33035348	    -10.19110087	     -8.69042875	    -11.95746653	     15.27020023	    -18.76159800	     -7.84323717	    -35.85912779	    -13.94080005	     -2.45638566	      2.55872386	      4.53226940	    -34.97330135	     49.49990268	     -7.68289001	      2.29967466	    -41.21976964	     38.53251010
      0.25000000	     21.21773978	      7.08609172	    -11.08997702	     -0.81664954	      0.96891730	      0.27131106	    -21.07645425	     14.29126089	      8.50803553	    -10.03831137	    -11.35151265	      1.13252635	     -0.14399481	      1.17461481	      8.25029466	    -67.30047143	     -9.71756041	     -6.53699222	    -12.14999010	     14.11406063	    -18.72400715	     -7.61856477	    -35.91811972	    -13.35982955	     -2.27316831	      2.77515696	      4.29599502	    -34.50022934	     48.76258490	     -6.76046575	      2.17961168	    -40.50976649	     39.23669721
      0.26000000	     20.47482033	      6.59157983	    -11.65631147	     -0.80700491	      0.96908058	      0.27179363	    -20.91810715	     14.04591037	      7.54799671	     -7.22981150	    -10.44128606	      2.69630703	     -0.14428348	      1.19112636	      8.26683438	    -68.24651334	     -9.11973194	     -4.55004437	    -12.07596918	     12.79105332	    -18.53480533	     -8.45607478	    -35.28829671	    -13.03516200	     -1.45561342	      2.87376793	      3.97221771	    -33.96535899	     47.88877123	     -5.60533211	      2.03446657	    -39.54881976	     39.58838888
      0.27000000	     19.95339795	      6.05051430	    -11.91047112	     -0.79722245	      0.96957838	      0.27207099	    -21.03618897	     13.67003157	      6.86158704	     -4.97422614	     -9.39944080	      3.80577913	     -0.14375668	      1.19903891	      8.23665111	    -68.69986887	     -8.35502013	     -1.91126568	    -11.66693607	     11.72463472	    -17.73118113	    -11.19457570	    -34.96745807	    -12.50871833	     -0.77305571	      2.82589026	      3.79548108	    -33.91502191	     47.41346103	     -4.40280958	      1.84458420	    -38.38611764	     40.03016512
      0.28000000	     19.72352054	      5.49512744	    -11.85207623	     -0.78752313	      0.97063120	      0.27165516	    -21.43629505	     13.24726274	      6.67939225	     -3.29097844	     -8.44848272	      4.43387011	     -0.14040934	      1.19546344	      8.04486263	    -68.49500949	     -8.10748016	      0.14350924	    -11.81029429	     10.72339858	    -17.69733628	    -11.01828844	    -35.03817338	    -11.83166901	     -0.57982700	      2.91394618	      3.60330634	    -33.67514573	     46.77012655	     -3.29163398	      1.83480619	    -37.75080068	     41.00132724
      0.29000000	     18.91058429	      5.00543231	    -12.14941694	     -0.77769634	      0.97056853	      0.27190648	    -21.17418693	     12.90960768	      5.83598128	     -0.88040363	     -7.34713918	      5.47447573	     -0.13777547	      1.19051517	      7.89395272	    -68.21149494	     -7.13527171	      2.05532551	    -11.48201981	      9.22239102	    -17.21401477	    -12.59907830	    -34.35778146	    -11.32580659	      0.32269948	      2.74115588	      3.39460648	    -33.60424646	     46.20579221	     -2.04084950	      1.71404649	    -36.41220219	     41.47731753
